<mxfile host="app.diagrams.net" modified="2024-05-21T13:50:07.662Z" agent="Mozilla/5.0 (Windows NT 10.0; Win64; x64) AppleWebKit/537.36 (KHTML, like Gecko) Chrome/125.0.0.0 Safari/537.36 Edg/125.0.0.0" version="24.4.4" etag="4AqfFE7e4RdqvPu8Y8ez" type="github">
  <diagram name="Trang-1" id="psEyRjs0StX0Q3ug_tmq">
    <mxGraphModel>
      <root>
        <mxCell id="0" />
        <mxCell id="1" parent="0" />
      </root>
    </mxGraphModel>
  </diagram>
</mxfile>
